<svg width="90" height="90" viewBox="0 0 90 90" fill="none" xmlns="http://www.w3.org/2000/svg">
<g id="Icon">
<g id="Group">
<path id="Vector" d="M54.7834 12.4437C48.3945 28.1097 30.5182 35.6316 14.8523 29.2427C10.1968 27.3447 6.25791 24.4299 3.19299 20.8614C1.40149 18.777 0.447632 16.1018 0.447632 13.3516V5.07438C0.447632 2.42102 2.59986 0.268799 5.25321 0.268799H57.0518C57.1341 4.31905 56.4103 8.45161 54.7834 12.4437Z" fill="#967DFC"/>
<path id="Vector_2" d="M89.2214 5.02596V56.873C85.1711 56.9553 81.0361 56.2314 77.0464 54.6046C61.3805 48.2157 53.861 30.3394 60.2475 14.6734C62.1455 10.0155 65.0603 6.07908 68.6312 3.01415C70.7156 1.22265 73.3908 0.268799 76.1386 0.268799H84.4642C87.0909 0.268799 89.2214 2.39923 89.2214 5.02596Z" fill="#21CFA9"/>
<path id="Vector_3" d="M29.4215 74.6404C27.5235 79.2959 24.6087 83.2348 21.0402 86.2997C18.9558 88.0912 16.2806 89.045 13.5329 89.045H5.2048C2.57807 89.0426 0.447632 86.9122 0.447632 84.2855V32.4384C4.49788 32.3561 8.63286 33.08 12.6226 34.7068C28.2885 41.0957 35.8104 58.972 29.4215 74.638V74.6404Z" fill="#FFDE68"/>
<path id="Vector_4" d="M89.2214 75.9596V84.2853C89.2214 86.912 87.091 89.0424 84.4642 89.0424H32.6172C32.5349 84.9922 33.2587 80.8596 34.8856 76.8675C41.2745 61.2015 59.1508 53.682 74.8167 60.0685C79.4747 61.9665 83.4111 64.8813 86.476 68.4522C88.2651 70.5367 89.2214 73.2118 89.2214 75.9596Z" fill="#FEADE7"/>
</g>
<path id="Vector_5" d="M54.3501 49.1865C47.4213 48.1455 45.0609 49.063 40.6523 54.5077C40.4562 54.7498 40.0689 54.5779 40.1149 54.2705C41.1559 47.3417 40.2383 44.9813 34.7936 40.5727C34.5515 40.3766 34.7234 39.9893 35.0309 40.0353C41.9596 41.0763 44.3201 40.1588 48.7286 34.714C48.9247 34.4719 49.3121 34.6438 49.2661 34.9513C48.2251 41.88 49.1426 44.2405 54.5873 48.649C54.8294 48.8451 54.6575 49.2325 54.3501 49.1865Z" fill="#393C48"/>
</g>
</svg>
