<svg width="201" height="69" viewBox="0 0 201 69" fill="none" xmlns="http://www.w3.org/2000/svg">
<g id="Logo" clip-path="url(#clip0_561_16360)">
<g id="Logo_2">
<g id="Group">
<path id="Vector" d="M42.2864 9.46306C37.3143 21.6395 23.4022 27.486 11.2103 22.5202C7.58722 21.0449 4.52181 18.7793 2.13655 16.0057C0.74233 14.3856 0 12.3063 0 10.1687V3.73517C0 1.67283 1.67495 0 3.73991 0H44.0518C44.1159 3.14808 43.5525 6.36014 42.2864 9.46306Z" fill="#967DFC"/>
<path id="Vector_2" d="M69.0876 3.69754V43.996C65.9355 44.06 62.7175 43.4973 59.6125 42.2328C47.4206 37.267 41.5686 23.3726 46.5388 11.1961C48.016 7.57572 50.2844 4.51608 53.0634 2.13385C54.6856 0.741389 56.7676 0 58.906 0H65.3854C67.4296 0 69.0876 1.65589 69.0876 3.69754Z" fill="#21CFA9"/>
<path id="Vector_3" d="M22.5487 57.8057C21.0716 61.4242 18.8032 64.4857 16.026 66.8679C14.4038 68.2604 12.3219 69.0018 10.1835 69.0018H3.70223C1.658 68.9999 0 67.344 0 65.3024V25.0039C3.15208 24.9399 6.3701 25.5026 9.47507 26.7671C21.667 31.7329 27.5209 45.6273 22.5487 57.8038V57.8057Z" fill="#FFDE68"/>
<path id="Vector_4" d="M69.0875 58.8312V65.3023C69.0875 67.344 67.4296 68.9999 65.3853 68.9999H25.0357C24.9717 65.8518 25.535 62.6397 26.8011 59.5368C31.7732 47.3604 45.6853 41.5158 57.8772 46.4797C61.5022 47.955 64.5657 50.2205 66.951 52.996C68.3433 54.6162 69.0875 56.6955 69.0875 58.8312Z" fill="#FEADE7"/>
</g>
<g id="Group_2">
<g id="Group_3">
<path id="Vector_5" d="M104.247 41.8H87.7118V17.2495H104.007V21.7637H92.9156V26.9271H102.98V31.4055H92.9156V37.2858H104.248V41.8H104.247Z" fill="#393C48"/>
<path id="Vector_6" d="M119.415 29.936L115.992 41.8001H111.233L106.029 23.542H110.651L113.765 35.0994L117.12 23.542H121.81L125.062 35.0994L128.142 23.542H132.832L127.594 41.8001H122.869L119.412 29.936H119.415Z" fill="#393C48"/>
<path id="Vector_7" d="M145.468 39.5437C144.27 41.2523 142.456 42.1423 139.956 42.1423C136.155 42.1423 133.621 39.9201 133.621 36.501C133.621 33.082 136.496 31.0309 141.838 31.0309C142.865 31.0309 143.756 31.0987 144.884 31.236V30.1428C144.884 28.0917 143.72 26.8949 141.734 26.8949C139.748 26.8949 138.448 28.0917 138.277 30.1428H133.998C134.271 25.9372 137.32 23.2012 141.736 23.2012C146.529 23.2012 149.336 25.8337 149.336 30.3121V41.7999H145.468V39.5437ZM140.984 38.8588C143.415 38.8588 144.886 37.5247 144.886 35.4059V34.1056C143.756 33.9344 142.968 33.8666 142.147 33.8666C139.443 33.8666 138.107 34.7209 138.107 36.3637C138.107 37.9029 139.202 38.8588 140.982 38.8588H140.984Z" fill="#393C48"/>
</g>
<path id="Vector_8" d="M170 48.6606H161.529V47.2437L165.209 43.4784C166.609 42.0445 167.2 41.2919 167.2 40.2344C167.2 39.2483 166.537 38.586 165.476 38.586C164.31 38.586 163.592 39.3217 163.592 40.5034H161.169C161.169 38.0836 163.001 36.3618 165.603 36.3618C168.025 36.3618 169.802 37.886 169.802 39.9295C169.802 41.3991 169.263 42.3306 167.146 44.4644L165.314 46.4364H169.998V48.6587L170 48.6606Z" fill="#393C48"/>
<g id="Group_4">
<path id="Vector_9" d="M87.7118 59.5297C87.7118 54.0596 91.4781 50.0591 96.6122 50.0591C101.371 50.0591 104.897 53.273 105.479 58.1974H100.48C100.241 55.77 98.7695 54.2647 96.6122 54.2647C94.1478 54.2647 92.5727 56.2819 92.5727 59.5297C92.5727 62.7775 94.1139 64.7947 96.6122 64.7947C98.8034 64.7947 100.207 63.3589 100.48 60.8619H105.479C104.93 65.8879 101.507 69.0003 96.6122 69.0003C91.3405 69.0003 87.7118 65.1033 87.7118 59.5297Z" fill="#393C48"/>
<path id="Vector_10" d="M107.261 59.5297C107.261 54.1951 111.233 50.0591 116.538 50.0591C121.844 50.0591 125.816 54.1969 125.816 59.5297C125.816 64.8624 121.844 69.0003 116.538 69.0003C111.233 69.0003 107.261 64.8285 107.261 59.5297ZM120.921 59.5297C120.921 56.1445 118.901 54.2985 116.538 54.2985C114.176 54.2985 112.156 56.1445 112.156 59.5297C112.156 62.9148 114.176 64.7947 116.538 64.7947C118.901 64.7947 120.921 62.9148 120.921 59.5297Z" fill="#393C48"/>
<path id="Vector_11" d="M128.864 68.6577V50.3996H133.246V52.9982C134.582 51.1523 136.293 50.0571 138.723 50.0571C141.154 50.0571 143.14 51.22 144.065 53.3049C145.502 51.2878 147.351 50.0571 150.09 50.0571C153.787 50.0571 156.287 52.4845 156.287 56.8614V68.6577H151.562V58.3667C151.562 55.802 150.467 54.2627 148.377 54.2627C146.495 54.2627 144.954 55.7323 144.954 58.4683V68.6577H140.229V58.3667C140.229 55.802 139.134 54.2627 137.045 54.2627C135.127 54.2627 133.621 55.7323 133.621 58.4683V68.6577H128.862H128.864Z" fill="#393C48"/>
</g>
</g>
</g>
<path id="Vector_12" d="M41.9492 38.0218C36.557 37.2127 34.72 37.9259 31.2891 42.1578C31.1364 42.346 30.835 42.2124 30.8708 41.9734C31.6809 36.588 30.9669 34.7533 26.7296 31.3267C26.5412 31.1743 26.6749 30.8732 26.9142 30.909C32.3065 31.7181 34.1434 31.005 37.5744 26.773C37.727 26.5849 38.0284 26.7185 37.9926 26.9574C37.1825 32.3429 37.8965 34.1775 42.1339 37.6041C42.3223 37.7565 42.1885 38.0576 41.9492 38.0218Z" fill="#393C48"/>
</g>
<defs>
<clipPath id="clip0_561_16360">
<rect width="201" height="69" fill="white"/>
</clipPath>
</defs>
</svg>
